<svg width="20" height="20" viewBox="0 0 20 20" fill="none" xmlns="http://www.w3.org/2000/svg">
<path fill-rule="evenodd" clip-rule="evenodd" d="M13.3332 0.833374C13.7934 0.833374 14.1665 1.20647 14.1665 1.66671V4.16671H17.4998C17.9601 4.16671 18.3332 4.5398 18.3332 5.00004V16.6667C18.3332 17.1269 17.9601 17.5 17.4998 17.5H2.49984C2.0396 17.5 1.6665 17.1269 1.6665 16.6667V5.00004C1.6665 4.5398 2.0396 4.16671 2.49984 4.16671H5.83317V1.66671C5.83317 1.20647 6.20627 0.833374 6.6665 0.833374H13.3332ZM16.6665 12.5H3.33317V15.8334H16.6665V12.5ZM10.8332 9.16671H9.1665V10.8334H10.8332V9.16671ZM12.4998 2.50004H7.49984V4.16671H12.4998V2.50004Z" fill="#52525B" style="fill:#52525B;fill:color(display-p3 0.3216 0.3216 0.3569);fill-opacity:1;"/>
</svg>
