<svg width="20" height="20" viewBox="0 0 20 20" fill="none" xmlns="http://www.w3.org/2000/svg">
<path fill-rule="evenodd" clip-rule="evenodd" d="M3.56809 14.0741L5.92559 16.4316L4.74726 17.6099L1.21143 16.4316L3.56809 14.0741ZM13.2914 1.99411L18.0056 6.70828C18.3309 7.03369 18.3309 7.56119 18.0056 7.88661L11.5231 14.3691L9.75643 14.9583L8.57726 16.1366C8.25184 16.4619 7.72434 16.4619 7.39893 16.1366L3.86309 12.6008C3.53777 12.2754 3.53777 11.7479 3.86309 11.4224L5.04143 10.2441L5.63059 8.47661L12.1131 1.99411C12.4385 1.66879 12.966 1.66879 13.2914 1.99411ZM13.8806 4.94078L8.57726 10.2441L9.75559 11.4224L15.0589 6.11911L13.8806 4.94078Z" fill="#52525B" style="fill:#52525B;fill:color(display-p3 0.3216 0.3216 0.3569);fill-opacity:1;"/>
</svg>
